<?xml version="1.0" encoding="utf-8"?>
<!-- Generator: Adobe Illustrator 16.0.0, SVG Export Plug-In . SVG Version: 6.00 Build 0)  -->
<!DOCTYPE svg PUBLIC "-//W3C//DTD SVG 1.1//EN" "http://www.w3.org/Graphics/SVG/1.1/DTD/svg11.dtd">
<svg version="1.1" id="Слой_1" xmlns="http://www.w3.org/2000/svg" xmlns:xlink="http://www.w3.org/1999/xlink" x="0px" y="0px"
	 width="20.333px" height="15px" viewBox="428.945 369.14 20.333 15" enable-background="new 428.945 369.14 20.333 15"
	 xml:space="preserve">
<g>
	<path fill="#7E7F84" d="M447.926,372.452c-0.342-0.384-0.81-0.64-1.321-0.64h-6.558c-0.213,0-0.426,0.17-0.426,0.427
		c0,0.255,0.213,0.426,0.426,0.426h6.558c0.256,0,0.512,0.127,0.681,0.298c0.171,0.213,0.257,0.468,0.171,0.723l-0.383,2.13h-4.684
		c-0.213,0-0.426,0.17-0.426,0.426c0,0.255,0.213,0.426,0.426,0.426h4.556l-0.384,2.045c-0.042,0.297-0.34,0.51-0.639,0.51h-8.176
		c-0.297,0-0.554-0.213-0.639-0.51l-1.661-9.241c-0.042-0.213-0.213-0.341-0.426-0.341h-3.278c-0.213,0-0.426,0.171-0.426,0.426
		c0,0.256,0.213,0.426,0.426,0.426h2.938l1.618,8.943c0.085,0.596,0.51,1.021,1.064,1.191c-0.213,0.299-0.383,0.682-0.383,1.106
		c0,1.065,0.851,1.917,1.915,1.917s1.917-0.852,1.917-1.917c0-0.382-0.128-0.766-0.341-1.064h2.598
		c-0.213,0.299-0.341,0.683-0.341,1.064c0,1.065,0.852,1.917,1.916,1.917s1.916-0.852,1.916-1.917c0-0.425-0.127-0.808-0.34-1.106
		c0.554-0.127,1.021-0.596,1.149-1.191l0.937-5.025C448.394,373.388,448.266,372.877,447.926,372.452z M439.961,381.18
		c0,0.597-0.468,1.064-1.064,1.064c-0.595,0-1.064-0.468-1.064-1.064c0-0.596,0.47-1.064,1.064-1.064
		C439.493,380.116,439.961,380.585,439.961,381.18z M444.689,382.245c-0.596,0-1.065-0.468-1.065-1.064
		c0-0.596,0.47-1.064,1.065-1.064s1.064,0.469,1.064,1.064C445.753,381.777,445.284,382.245,444.689,382.245z"/>
</g>
</svg>
