<?xml version="1.0" encoding="utf-8"?>
<!-- Generator: Adobe Illustrator 16.0.0, SVG Export Plug-In . SVG Version: 6.00 Build 0)  -->
<!DOCTYPE svg PUBLIC "-//W3C//DTD SVG 1.1//EN" "http://www.w3.org/Graphics/SVG/1.1/DTD/svg11.dtd">
<svg version="1.1" id="Layer_1" xmlns="http://www.w3.org/2000/svg" xmlns:xlink="http://www.w3.org/1999/xlink" x="0px" y="0px"
	 width="17.167px" height="11.5px" viewBox="14.833 14.667 17.167 11.5" enable-background="new 14.833 14.667 17.167 11.5"
	 xml:space="preserve">
<path id="mail" fill="#7E7F84" d="M29.917,15.062h-12.5c-1.151,0-2.083,0.934-2.083,2.083v6.771c0,1.15,0.933,2.083,2.083,2.083
	h12.5C31.067,26,32,25.067,32,23.917v-6.771C32,15.996,31.067,15.062,29.917,15.062z M16.375,17.797l3.646,2.734l-3.646,2.734
	V17.797z M30.958,23.917c0,0.574-0.468,1.041-1.041,1.041h-12.5c-0.574,0-1.042-0.467-1.042-1.041l4.079-3.061l2.275,1.707
	c0.277,0.207,0.607,0.312,0.938,0.312c0.329,0,0.659-0.104,0.937-0.312l2.275-1.707L30.958,23.917L30.958,23.917z M30.958,23.266
	l-3.646-2.734l3.646-2.734V23.266z M24.291,22.146c-0.182,0.137-0.397,0.209-0.624,0.209c-0.228,0-0.443-0.072-0.625-0.209
	l-2.154-1.615l-0.434-0.325l-4.079-3.06v-0.001c0-0.574,0.468-1.041,1.042-1.041h12.5c0.573,0,1.041,0.467,1.041,1.041
	L24.291,22.146z"/>
</svg>
