<?xml version="1.0" encoding="utf-8"?>
<!-- Generator: Adobe Illustrator 16.0.0, SVG Export Plug-In . SVG Version: 6.00 Build 0)  -->
<svg version="1.2" baseProfile="tiny" id="Слой_1"
	 xmlns="http://www.w3.org/2000/svg" xmlns:xlink="http://www.w3.org/1999/xlink" x="0px" y="0px" width="16.5px" height="19.5px"
	 viewBox="62.75 103.25 16.5 19.5" xml:space="preserve">
<g>
	<g>
		<path d="M74.716,116.963c-0.124,0-0.245-0.052-0.332-0.139c-0.087-0.086-0.136-0.206-0.136-0.33c0-0.123,0.049-0.245,0.136-0.331
			c0.173-0.174,0.486-0.174,0.662,0c0.086,0.089,0.138,0.208,0.138,0.331c0,0.122-0.052,0.244-0.138,0.33
			C74.959,116.911,74.838,116.963,74.716,116.963z"/>
	</g>
	<g>
		<path d="M73.822,118.078c-0.124,0-0.246-0.049-0.332-0.136c-0.087-0.086-0.136-0.208-0.136-0.332c0-0.121,0.049-0.243,0.136-0.33
			c0.176-0.173,0.486-0.173,0.662,0c0.086,0.087,0.136,0.209,0.136,0.33c0,0.124-0.05,0.246-0.136,0.332
			C74.065,118.028,73.944,118.078,73.822,118.078z"/>
	</g>
	<g>
		<path d="M72.927,119.196c-0.122,0-0.243-0.049-0.33-0.136c-0.087-0.089-0.138-0.21-0.138-0.332s0.051-0.243,0.138-0.33
			c0.173-0.175,0.486-0.175,0.662-0.002c0.086,0.089,0.136,0.21,0.136,0.332s-0.05,0.243-0.136,0.33
			C73.169,119.147,73.051,119.196,72.927,119.196z"/>
	</g>
	<g>
		<path d="M72.033,120.314c-0.125,0-0.243-0.052-0.33-0.139c-0.087-0.086-0.138-0.205-0.138-0.329s0.051-0.245,0.138-0.332
			c0.173-0.173,0.486-0.173,0.662,0c0.086,0.089,0.136,0.208,0.136,0.332c0,0.122-0.05,0.243-0.136,0.329
			C72.276,120.263,72.157,120.314,72.033,120.314z"/>
	</g>
	<g>
		<path d="M70.818,121.109c-0.132,0-0.263-0.056-0.355-0.163c-0.211-0.246-5.176-6.064-6.519-9.911
			c-0.582-1.666-0.438-3.356,0.385-4.509c0.471-0.661,1.38-1.453,3.036-1.453c0.008,0,0.014,0,0.021,0
			c2.284,0,3.307,1.257,3.763,2.28c0.676-1.112,1.895-2.281,3.734-2.281c1.193,0,2.103,0.37,2.7,1.097
			c0.812,0.989,1.005,2.604,0.573,4.802c-0.248,1.257-1.015,2.795-2.28,4.572c-0.149,0.211-0.442,0.261-0.653,0.11
			c-0.21-0.149-0.259-0.441-0.108-0.652c1.188-1.669,1.902-3.086,2.124-4.21c0.37-1.883,0.239-3.275-0.378-4.026
			c-0.417-0.507-1.064-0.753-1.978-0.753c-2.526,0-3.385,2.812-3.393,2.84c-0.064,0.218-0.273,0.359-0.502,0.333
			c-0.227-0.026-0.4-0.218-0.414-0.445c-0.008-0.109-0.213-2.73-3.192-2.73c-0.005,0-0.011,0-0.016,0
			c-0.997,0-1.784,0.371-2.275,1.061c-0.637,0.894-0.738,2.295-0.263,3.654c1.285,3.68,6.295,9.553,6.345,9.612
			c0.168,0.195,0.146,0.492-0.051,0.66C71.034,121.071,70.926,121.109,70.818,121.109z"/>
	</g>
</g>
</svg>
