<?xml version="1.0" encoding="utf-8"?>
<!-- Generator: Adobe Illustrator 16.0.0, SVG Export Plug-In . SVG Version: 6.00 Build 0)  -->
<!DOCTYPE svg PUBLIC "-//W3C//DTD SVG 1.1//EN" "http://www.w3.org/Graphics/SVG/1.1/DTD/svg11.dtd">
<svg version="1.1"
	 id="svg2" xmlns:svg="http://www.w3.org/2000/svg" xmlns:inkscape="http://www.inkscape.org/namespaces/inkscape" xmlns:sodipodi="http://sodipodi.sourceforge.net/DTD/sodipodi-0.dtd" xmlns:dc="http://purl.org/dc/elements/1.1/" xmlns:rdf="http://www.w3.org/1999/02/22-rdf-syntax-ns#" xmlns:cc="http://creativecommons.org/ns#"
	 xmlns="http://www.w3.org/2000/svg" xmlns:xlink="http://www.w3.org/1999/xlink" x="0px" y="0px" width="7.75px" height="15.917px"
	 viewBox="150.667 289.833 7.75 15.917" enable-background="new 150.667 289.833 7.75 15.917" xml:space="preserve">
<g id="layer1" transform="translate(0,-540.36218)">
	<g id="g4305">
		<g id="g4345" transform="translate(28,-40.00001)">
			<g id="text2994">
				<g id="g3830" transform="translate(0,15.24359)">
					<g id="g3838">
						<g id="g3785">
							<path id="rect3010" fill="#7E7F84" d="M124.009,855.799c-0.264,0-0.527,0.108-0.713,0.295
								c-0.187,0.188-0.295,0.451-0.295,0.715v12.443c0,0.266,0.108,0.527,0.295,0.715c0.187,0.187,0.449,0.295,0.713,0.295h5.045
								c0.264,0,0.527-0.108,0.713-0.295c0.187-0.188,0.295-0.449,0.295-0.715v-12.443c0-0.264-0.108-0.527-0.295-0.715
								c-0.187-0.187-0.449-0.295-0.713-0.295H124.009z M126.003,856.472c0.002,0,0.005,0,0.007,0c0.005,0,0.011,0,0.017,0h1.009
								c0.093-0.002,0.169,0.073,0.17,0.166c0.001,0.093-0.073,0.169-0.166,0.171c-0.001,0-0.003,0-0.004,0h-1.009
								c-0.093,0.006-0.173-0.063-0.18-0.156S125.91,856.479,126.003,856.472z M123.337,857.481h6.39v10.931h-6.39V857.481z
								 M126.531,868.748c0.279,0,0.505,0.226,0.505,0.504c0,0.28-0.226,0.506-0.505,0.506c-0.279,0-0.504-0.226-0.504-0.506
								C126.027,868.974,126.253,868.748,126.531,868.748z"/>
						</g>
					</g>
				</g>
				<g id="layer1-4" transform="translate(539.77941,-13.359245)">
					<g id="layer1-5" transform="translate(-573.14286,170.28574)">
					</g>
				</g>
			</g>
		</g>
	</g>
</g>
</svg>
